<?xml version="1.0" encoding="UTF-8"?>
<!DOCTYPE svg PUBLIC "-//W3C//DTD SVG 1.1//EN" "http://www.w3.org/Graphics/SVG/1.1/DTD/svg11.dtd">
<!-- Creator: CorelDRAW 2020 (64-Bit) -->
<svg xmlns="http://www.w3.org/2000/svg" xml:space="preserve" width="60mm" height="17.739mm" version="1.1" style="shape-rendering:geometricPrecision; text-rendering:geometricPrecision; image-rendering:optimizeQuality; fill-rule:evenodd; clip-rule:evenodd"
viewBox="0 0 0.646 0.191"
 xmlns:xlink="http://www.w3.org/1999/xlink"
 xmlns:xodm="http://www.corel.com/coreldraw/odm/2003">
 <defs>
  <style type="text/css">
   <![CDATA[
    .fil1 {fill:#F97A54;fill-rule:nonzero}
    .fil0 {fill:white;fill-rule:nonzero}
   ]]>
  </style>
 </defs>
 <g id="Capa_x0020_1">
  <metadata id="CorelCorpID_0Corel-Layer"/>
  <g id="_1564953343712">
   <polygon class="fil0" points="0.0569,0.0253 0.0569,0.1268 0.0303,0.1268 0.0303,0.0253 -0,0.0253 -0,0.0028 0.0872,0.0028 0.0872,0.0253 "/>
   <path class="fil0" d="M0.2174 0.0581l0 0.0177c0,0.0102 -0.0023,0.0178 -0.0069,0.023 -0.0046,0.0052 -0.0115,0.0078 -0.0205,0.0078 -0.009,0 -0.0157,-0.0026 -0.0202,-0.0078 -0.0045,-0.0052 -0.0068,-0.0129 -0.0068,-0.0231l0 -0.073 -0.0263 0 0 0.0771c0,0.0168 0.0044,0.0294 0.0133,0.0377 0.0089,0.0083 0.0224,0.0124 0.0405,0.0124 0.0178,0 0.0312,-0.0041 0.0401,-0.0124 0.0089,-0.0083 0.0133,-0.0209 0.0133,-0.0377l0 -0.0218 -0.0263 0z"/>
   <polygon class="fil1" points="0.2305,0.0028 0.2371,0.0219 0.2438,0.0411 0.2305,0.0411 0.2171,0.0411 0.2238,0.0219 "/>
   <polygon class="fil0" points="0.4037,0.0028 0.3939,0.0253 0.3976,0.0253 0.422,0.0253 0.422,0.1268 0.4486,0.1268 0.4486,0.0253 0.4789,0.0253 0.4789,0.0028 "/>
   <polygon class="fil0" points="0.3804,0.0028 0.3746,0.0028 0.2932,0.0028 0.2932,0.0253 0.3235,0.0253 0.3235,0.1268 0.3501,0.1268 0.3501,0.0253 0.3731,0.0253 0.383,0.0028 "/>
   <path class="fil0" d="M0.6077 0.0946c-0.0073,0.0079 -0.0166,0.0118 -0.0278,0.0118 -0.0115,0 -0.0208,-0.0039 -0.0281,-0.0117 -0.0073,-0.0078 -0.0109,-0.0177 -0.0109,-0.0297 0,-0.0118 0.0037,-0.0217 0.0111,-0.0297 0.0074,-0.008 0.0167,-0.012 0.028,-0.012 0.0111,0 0.0203,0.004 0.0277,0.012 0.0074,0.008 0.0111,0.0179 0.0111,0.0296 0,0.0119 -0.0036,0.0217 -0.011,0.0296zm0.0333 -0.0547c-0.0033,-0.0078 -0.008,-0.0148 -0.0143,-0.0209 -0.0063,-0.006 -0.0135,-0.0107 -0.0216,-0.0141 -0.0082,-0.0033 -0.0166,-0.005 -0.0252,-0.005 -0.0087,0 -0.0172,0.0017 -0.0254,0.005 -0.0082,0.0033 -0.0154,0.008 -0.0216,0.0141 -0.0019,0.0019 -0.0034,0.0039 -0.0051,0.0059l-0.005 0.007c-0.0016,0.0026 -0.0032,0.0051 -0.0043,0.0079 -0.0033,0.0078 -0.0049,0.0162 -0.0049,0.0251 0,0.0099 0.0021,0.0192 0.0062,0.0279 0.0041,0.0086 0.0101,0.0161 0.0179,0.0223 0.006,0.0048 0.0127,0.0085 0.0199,0.0111 0.0073,0.0026 0.0147,0.0038 0.0222,0.0038 0.0086,0 0.017,-0.0016 0.0251,-0.0049 0.0081,-0.0033 0.0153,-0.008 0.0218,-0.0141 0.0062,-0.006 0.011,-0.0129 0.0143,-0.0208 0.0033,-0.0079 0.005,-0.0163 0.005,-0.0251 0,-0.0089 -0.0016,-0.0172 -0.0049,-0.0251z"/>
   <path class="fil1" d="M0.0446 0.191l-0.0143 -0.0334 0.0054 0 0.0072 0.0171c0.0004,0.001 0.0008,0.0019 0.0011,0.0028 0.0003,0.0008 0.0005,0.0016 0.0007,0.0024 0.0002,-0.0008 0.0004,-0.0016 0.0007,-0.0025 0.0003,-0.0009 0.0006,-0.0017 0.001,-0.0027l0.0072 -0.0171 0.0054 0 -0.0143 0.0334z"/>
   <polygon class="fil1" points="0.0781,0.1576 0.0833,0.1576 0.0833,0.1897 0.0781,0.1897 "/>
   <path class="fil1" d="M0.1024 0.1897l0 -0.0334 0.0204 0.0197c0.0006,0.0006 0.0011,0.0011 0.0017,0.0018 0.0006,0.0006 0.0012,0.0013 0.0018,0.0021l0 -0.0223 0.0048 0 0 0.0334 -0.0208 -0.02c-0.0006,-0.0005 -0.0011,-0.0011 -0.0016,-0.0017 -0.0005,-0.0006 -0.001,-0.0012 -0.0015,-0.0019l0 0.0224 -0.0048 0z"/>
   <polygon class="fil1" points="0.1503,0.1576 0.1555,0.1576 0.1555,0.1897 0.1503,0.1897 "/>
   <polygon class="fil1" points="0.1746,0.1897 0.1746,0.1576 0.1799,0.1576 0.1799,0.185 0.1915,0.185 0.1915,0.1897 "/>
   <path class="fil1" d="M0.2396 0.1737c0,-0.0016 -0.0003,-0.0032 -0.0009,-0.0046 -0.0006,-0.0015 -0.0014,-0.0028 -0.0026,-0.0039 -0.0011,-0.0011 -0.0023,-0.002 -0.0038,-0.0026 -0.0014,-0.0006 -0.0029,-0.0009 -0.0045,-0.0009 -0.0016,0 -0.0031,0.0003 -0.0045,0.0009 -0.0014,0.0006 -0.0027,0.0015 -0.0038,0.0026 -0.0011,0.0011 -0.002,0.0024 -0.0025,0.0039 -0.0006,0.0015 -0.0009,0.003 -0.0009,0.0047 0,0.0016 0.0003,0.0032 0.0009,0.0046 0.0006,0.0015 0.0014,0.0027 0.0025,0.0039 0.0011,0.0011 0.0024,0.002 0.0038,0.0026 0.0014,0.0006 0.0029,0.0009 0.0045,0.0009 0.0016,0 0.0031,-0.0003 0.0045,-0.0009 0.0014,-0.0006 0.0027,-0.0015 0.0038,-0.0026 0.0011,-0.0011 0.002,-0.0024 0.0026,-0.0039 0.0006,-0.0015 0.0009,-0.003 0.0009,-0.0046zm0.0054 0c0,0.0023 -0.0004,0.0044 -0.0013,0.0065 -0.0009,0.002 -0.0021,0.0038 -0.0037,0.0054 -0.0017,0.0016 -0.0035,0.0028 -0.0056,0.0037 -0.0021,0.0008 -0.0043,0.0013 -0.0065,0.0013 -0.0023,0 -0.0045,-0.0004 -0.0066,-0.0013 -0.0021,-0.0009 -0.004,-0.0021 -0.0056,-0.0037 -0.0016,-0.0016 -0.0029,-0.0034 -0.0037,-0.0054 -0.0009,-0.002 -0.0013,-0.0042 -0.0013,-0.0065 0,-0.0023 0.0004,-0.0045 0.0013,-0.0065 0.0008,-0.002 0.0021,-0.0039 0.0037,-0.0055 0.0016,-0.0016 0.0035,-0.0028 0.0056,-0.0036 0.0021,-0.0008 0.0043,-0.0013 0.0066,-0.0013 0.0023,0 0.0045,0.0004 0.0066,0.0013 0.0021,0.0008 0.0039,0.002 0.0056,0.0036 0.0016,0.0016 0.0029,0.0035 0.0037,0.0055 0.0009,0.002 0.0013,0.0042 0.0013,0.0065z"/>
   <path class="fil1" d="M0.2641 0.1833l0.0042 -0.0019c0.0004,0.0014 0.0011,0.0025 0.0022,0.0033 0.0011,0.0007 0.0024,0.0011 0.004,0.0011 0.0016,0 0.0028,-0.0004 0.0037,-0.0013 0.0009,-0.0009 0.0014,-0.002 0.0014,-0.0035 0,-0.0019 -0.0016,-0.0036 -0.0047,-0.0051 -0.0004,-0.0002 -0.0008,-0.0004 -0.001,-0.0005 -0.0035,-0.0017 -0.0059,-0.0033 -0.0071,-0.0047 -0.0012,-0.0014 -0.0018,-0.0031 -0.0018,-0.0051 0,-0.0026 0.0009,-0.0047 0.0027,-0.0064 0.0018,-0.0016 0.0041,-0.0024 0.007,-0.0024 0.0024,0 0.0044,0.0005 0.006,0.0014 0.0016,0.0009 0.0027,0.0022 0.0033,0.0039l-0.0041 0.0021c-0.0006,-0.001 -0.0013,-0.0017 -0.0021,-0.0022 -0.0008,-0.0005 -0.0016,-0.0007 -0.0026,-0.0007 -0.0014,0 -0.0025,0.0004 -0.0033,0.0011 -0.0008,0.0007 -0.0012,0.0017 -0.0012,0.0029 0,0.0019 0.0018,0.0037 0.0054,0.0054 0.0003,0.0001 0.0005,0.0002 0.0007,0.0003 0.0032,0.0015 0.0054,0.0029 0.0065,0.0043 0.0012,0.0014 0.0018,0.0031 0.0018,0.0052 0,0.003 -0.001,0.0055 -0.0029,0.0073 -0.0019,0.0018 -0.0045,0.0027 -0.0078,0.0027 -0.0027,0 -0.005,-0.0006 -0.0067,-0.0019 -0.0018,-0.0013 -0.0029,-0.0031 -0.0034,-0.0054z"/>
  </g>
 </g>
</svg>
